<svg width="29" height="30" viewBox="0 0 29 30" fill="none" xmlns="http://www.w3.org/2000/svg">
<path d="M7.06877 21.375C8.09585 20.5625 9.24377 19.9219 10.5125 19.4531C11.7813 18.9844 13.1104 18.75 14.5 18.75C15.8896 18.75 17.2188 18.9844 18.4875 19.4531C19.7563 19.9219 20.9042 20.5625 21.9313 21.375C22.6361 20.5208 23.1849 19.5521 23.5776 18.4688C23.9703 17.3854 24.1667 16.2292 24.1667 15C24.1667 12.2292 23.2252 9.86979 21.3422 7.92188C19.4592 5.97396 17.1785 5 14.5 5C11.8215 5 9.54082 5.97396 7.65783 7.92188C5.77485 9.86979 4.83335 12.2292 4.83335 15C4.83335 16.2292 5.02971 17.3854 5.42242 18.4688C5.81512 19.5521 6.36391 20.5208 7.06877 21.375ZM14.5 16.25C13.3118 16.25 12.3099 15.8281 11.4943 14.9844C10.6787 14.1406 10.2709 13.1042 10.2709 11.875C10.2709 10.6458 10.6787 9.60938 11.4943 8.76563C12.3099 7.92188 13.3118 7.5 14.5 7.5C15.6882 7.5 16.6901 7.92188 17.5058 8.76563C18.3214 9.60938 18.7292 10.6458 18.7292 11.875C18.7292 13.1042 18.3214 14.1406 17.5058 14.9844C16.6901 15.8281 15.6882 16.25 14.5 16.25ZM14.5 27.5C12.8285 27.5 11.2577 27.1719 9.78752 26.5156C8.31738 25.8594 7.03856 24.9688 5.95106 23.8438C4.86356 22.7188 4.00262 21.3958 3.36825 19.875C2.73387 18.3542 2.41669 16.7292 2.41669 15C2.41669 13.2708 2.73387 11.6458 3.36825 10.125C4.00262 8.60417 4.86356 7.28125 5.95106 6.15625C7.03856 5.03125 8.31738 4.14063 9.78752 3.48438C11.2577 2.82812 12.8285 2.5 14.5 2.5C16.1715 2.5 17.7424 2.82812 19.2125 3.48438C20.6827 4.14063 21.9615 5.03125 23.049 6.15625C24.1365 7.28125 24.9974 8.60417 25.6318 10.125C26.2662 11.6458 26.5834 13.2708 26.5834 15C26.5834 16.7292 26.2662 18.3542 25.6318 19.875C24.9974 21.3958 24.1365 22.7188 23.049 23.8438C21.9615 24.9688 20.6827 25.8594 19.2125 26.5156C17.7424 27.1719 16.1715 27.5 14.5 27.5Z" fill="white"/>
</svg>
